<!-- icon666.com - MILLIONS vector ICONS FREE --><svg viewBox="0 0 48 48" xmlns="http://www.w3.org/2000/svg"><g id="Trolley"><path d="m47.79 12.39c-.4-.53 2.68-.21-38.92-2.35l-.87-6.18a1 1 0 0 0 -1-.86h-6a1 1 0 0 0 0 2h5.13c1.2 8.36.38 2.67 3.74 26.18a4 4 0 0 0 1.13 7.82h29a1 1 0 0 0 0-2h-29a2 2 0 0 1 0-4h32a1 1 0 0 0 1-.79c4.33-20.67 4.19-19.3 3.79-19.82zm-5.6 18.61h-30.32l-2.71-18.94 36.62 1.88z"></path><path d="m16 40a4 4 0 1 0 4 4 4 4 0 0 0 -4-4zm0 6a2 2 0 1 1 2-2 2 2 0 0 1 -2 2z"></path><path d="m34 40a4 4 0 1 0 4 4 4 4 0 0 0 -4-4zm0 6a2 2 0 1 1 2-2 2 2 0 0 1 -2 2z"></path></g></svg>