<!-- icon666.com - MILLIONS vector ICONS FREE --><svg id="Layer_1" viewBox="0 0 512 512" xmlns="http://www.w3.org/2000/svg" data-name="Layer 1"><path d="m437.019 74.981a256 256 0 1 0 -362.038 362.038 256 256 0 1 0 362.038-362.038zm-325.263 347v-3.691a98.891 98.891 0 0 1 98.78-98.779h90.929a98.891 98.891 0 0 1 98.779 98.779v3.691a219.581 219.581 0 0 1 -288.488 0zm320.831-34.911c-14.122-59.312-67.549-103.559-131.122-103.559h-90.929c-63.574 0-117 44.247-131.123 103.559a218.844 218.844 0 0 1 -43.413-131.07c0-121.308 98.692-220 220-220s220 98.692 220 220a218.844 218.844 0 0 1 -43.413 131.066zm-176.587-315.909a98.561 98.561 0 1 0 98.562 98.561 98.673 98.673 0 0 0 -98.562-98.561zm0 161.122a62.561 62.561 0 1 1 62.562-62.561 62.632 62.632 0 0 1 -62.562 62.561z"></path></svg>